<svg xmlns="http://www.w3.org/2000/svg" width="40" height="40" viewBox="0 0 40 40">
  <g id="Group_8990" data-name="Group 8990" transform="translate(-122 -295)">
    <g id="Group_8135" data-name="Group 8135" transform="translate(122 295)">
      <g id="Rectangle_2696" data-name="Rectangle 2696" fill="#fff" stroke="#e4e4e4" stroke-width="1">
        <rect width="40" height="40" rx="4" stroke="none"/>
        <rect x="0.5" y="0.5" width="39" height="39" rx="3.5" fill="none"/>
      </g>
    </g>
    <g id="Path_2514" data-name="Path 2514" transform="translate(132 310.166)" fill="#fff">
      <path d="M 4.53125 8.5625 C 2.308409929275513 8.5625 0.5 6.754089832305908 0.5 4.53125 C 0.5 2.308409929275513 2.308409929275513 0.5 4.53125 0.5 C 6.754089832305908 0.5 8.5625 2.308409929275513 8.5625 4.53125 C 8.5625 6.754089832305908 6.754089832305908 8.5625 4.53125 8.5625 Z" stroke="none"/>
      <path d="M 4.53125 1 C 2.584109783172607 1 1 2.584109783172607 1 4.53125 C 1 6.478389739990234 2.584109783172607 8.0625 4.53125 8.0625 C 6.478389739990234 8.0625 8.0625 6.478389739990234 8.0625 4.53125 C 8.0625 2.584109783172607 6.478389739990234 1 4.53125 1 M 4.53125 0 C 7.033790111541748 0 9.0625 2.028709888458252 9.0625 4.53125 C 9.0625 7.033790111541748 7.033790111541748 9.0625 4.53125 9.0625 C 2.028709888458252 9.0625 0 7.033790111541748 0 4.53125 C 0 2.028709888458252 2.028709888458252 0 4.53125 0 Z" stroke="none" fill="#707070"/>
    </g>
    <g id="Path_2528" data-name="Path 2528" transform="translate(143.371 310.166)" fill="#f2f1f1">
      <path d="M 4.53125 8.5625 C 2.308409929275513 8.5625 0.5 6.754089832305908 0.5 4.53125 C 0.5 2.308409929275513 2.308409929275513 0.5 4.53125 0.5 C 6.754089832305908 0.5 8.5625 2.308409929275513 8.5625 4.53125 C 8.5625 6.754089832305908 6.754089832305908 8.5625 4.53125 8.5625 Z" stroke="none"/>
      <path d="M 4.53125 1 C 2.584109783172607 1 1 2.584109783172607 1 4.53125 C 1 6.478389739990234 2.584109783172607 8.0625 4.53125 8.0625 C 6.478389739990234 8.0625 8.0625 6.478389739990234 8.0625 4.53125 C 8.0625 2.584109783172607 6.478389739990234 1 4.53125 1 M 4.53125 0 C 7.033790111541748 0 9.0625 2.028709888458252 9.0625 4.53125 C 9.0625 7.033790111541748 7.033790111541748 9.0625 4.53125 9.0625 C 2.028709888458252 9.0625 0 7.033790111541748 0 4.53125 C 0 2.028709888458252 2.028709888458252 0 4.53125 0 Z" stroke="none" fill="#707070"/>
    </g>
    <path id="Path_2527" data-name="Path 2527" d="M11.57,15.535A2.035,2.035,0,1,1,9.535,13.5,2.035,2.035,0,0,1,11.57,15.535Z" transform="translate(126.996 299.162)" fill="#707070"/>
  </g>
</svg>
