<svg xmlns="http://www.w3.org/2000/svg" width="40" height="40" viewBox="0 0 40 40">
  <g id="Group_8979" data-name="Group 8979" transform="translate(2348 2053)">
    <g id="Group_8954" data-name="Group 8954" transform="translate(-2470 -2348)">
      <g id="Group_8135" data-name="Group 8135" transform="translate(122 295)">
        <g id="Rectangle_2696" data-name="Rectangle 2696" fill="#fff" stroke="#e4e4e4" stroke-width="1">
          <rect width="40" height="40" rx="4" stroke="none"/>
          <rect x="0.5" y="0.5" width="39" height="39" rx="3.5" fill="none"/>
        </g>
      </g>
    </g>
    <g id="Icon_feather-video" data-name="Icon feather-video" transform="translate(-2336.5 -2046.005)">
      <path id="Path_2578" data-name="Path 2578" d="M29.505,10.5,24,14.432l5.505,3.932Z" transform="translate(-10.703 -1.427)" fill="none" stroke="#707070" stroke-linecap="round" stroke-linejoin="round" stroke-width="1"/>
      <path id="Path_2579" data-name="Path 2579" d="M3.073,7.5h8.651A1.573,1.573,0,0,1,13.3,9.073v7.865a1.573,1.573,0,0,1-1.573,1.573H3.073A1.573,1.573,0,0,1,1.5,16.938V9.073A1.573,1.573,0,0,1,3.073,7.5Z" fill="none" stroke="#707070" stroke-linecap="round" stroke-linejoin="round" stroke-width="1"/>
    </g>
  </g>
</svg>
