<svg xmlns="http://www.w3.org/2000/svg" width="40" height="40" viewBox="0 0 40 40">
  <g id="Group_8951" data-name="Group 8951" transform="translate(-122 -295)">
    <g id="Group_8135" data-name="Group 8135" transform="translate(122 295)">
      <g id="Rectangle_2696" data-name="Rectangle 2696" fill="#fff" stroke="#e4e4e4" stroke-width="1">
        <rect width="40" height="40" rx="4" stroke="none"/>
        <rect x="0.5" y="0.5" width="39" height="39" rx="3.5" fill="none"/>
      </g>
    </g>
    <g id="Group_8151" data-name="Group 8151" transform="translate(-86.924 32.833)">
      <g id="Group_8103" data-name="Group 8103" transform="translate(216 274.167)">
        <g id="Rectangle_2698" data-name="Rectangle 2698" fill="none" stroke="#707070" stroke-width="1">
          <rect width="26" height="8.174" rx="1" stroke="none"/>
          <rect x="0.5" y="0.5" width="25" height="7.174" rx="0.5" fill="none"/>
        </g>
      </g>
      <g id="Path_2509" data-name="Path 2509" transform="translate(220.821 278.607) rotate(180)" fill="#cad9fc">
        <path d="M 1.560293674468994 1.140105724334717 L 0.5256407260894775 1.140105724334717 L 1.042969226837158 0.4503398239612579 L 1.560293674468994 1.140105724334717 Z" stroke="none"/>
        <path d="M 1.04296863079071 -1.788139343261719e-06 C 1.065316081047058 -1.788139343261719e-06 1.087663650512695 0.009930729866027832 1.102558612823486 0.02979576587677002 L 2.070908546447754 1.320925712585449 C 2.107728719711304 1.370025753974915 2.072698593139648 1.440105795860291 2.011318683624268 1.440105795860291 L 0.07461857795715332 1.440105795860291 C 0.01323866844177246 1.440105795860291 -0.02179145812988281 1.370025753974915 0.01502871513366699 1.320925712585449 L 0.9833786487579346 0.02979576587677002 C 0.9982736110687256 0.009930729866027832 1.020621180534363 -1.788139343261719e-06 1.04296863079071 -1.788139343261719e-06 Z" stroke="none" fill="#707070"/>
      </g>
      <g id="Path_2515" data-name="Path 2515" transform="translate(220.821 285.933) rotate(180)" fill="#cad9fc">
        <path d="M 1.560293674468994 1.140105724334717 L 0.5256407260894775 1.140105724334717 L 1.042969226837158 0.4503398239612579 L 1.560293674468994 1.140105724334717 Z" stroke="none"/>
        <path d="M 1.04296863079071 -1.788139343261719e-06 C 1.065316081047058 -1.788139343261719e-06 1.087663650512695 0.009930729866027832 1.102558612823486 0.02979576587677002 L 2.070908546447754 1.320925712585449 C 2.107728719711304 1.370025753974915 2.072698593139648 1.440105795860291 2.011318683624268 1.440105795860291 L 0.07461857795715332 1.440105795860291 C 0.01323866844177246 1.440105795860291 -0.02179145812988281 1.370025753974915 0.01502871513366699 1.320925712585449 L 0.9833786487579346 0.02979576587677002 C 0.9982736110687256 0.009930729866027832 1.020621180534363 -1.788139343261719e-06 1.04296863079071 -1.788139343261719e-06 Z" stroke="none" fill="#707070"/>
      </g>
      <g id="Group_8130" data-name="Group 8130" transform="translate(216 281.167)">
        <g id="Rectangle_2698-2" data-name="Rectangle 2698" fill="none" stroke="#707070" stroke-width="1">
          <rect width="26" height="8.092" rx="1" stroke="none"/>
          <rect x="0.5" y="0.5" width="25" height="7.092" rx="0.5" fill="none"/>
        </g>
      </g>
    </g>
  </g>
</svg>
